#!OML:ASF F:\VICON\USERDATA\INSTALL\rory3\rory3.ASF
:FULLY-SPECIFIED
:DEGREES
68
root 0.6858367139478057 17.89902311861767 18.35001331003145 -4.654725167777094 -3.5887903456435275 -0.7698919159672628
lfemur -12.314789453695692 -3.2088120010546057 -23.377874446919243
ltibia 28.983052290332218
lfoot -12.767201030741184 1.4814644972972704
ltoes -0.89571667918218
rfemur -15.344957462433078 1.439242633156729 22.64080939219546
rtibia 76.22300333754663
rfoot 3.127425695843904 -4.397137569304588
rtoes 13.241623640429578
lowerback 10.851335412065218 1.5429468719827315 0.6919076400143325
upperback 0.435920596736211 2.1141523033605405 0.5416197998405479
thorax -5.5611562041807066 1.037491650705262 -0.05110561350929621
lowerneck -15.69275136729384 -2.826596405233909 -2.073146952853345
upperneck 21.26333537039936 -3.7687131202622624 1.3310222763433959
head 9.348358271036394 -1.763885158064227 0.31860506689279244
lclavicle -1.3874280457456466e-15 -1.8436985999429754e-15
lhumerus -32.69125530494079 3.412894528057643 81.4127435783873
lradius 21.2573828861106
lwrist 2.5758692367707874
lhand -25.879777117119424 25.46895475941912
lfingers 7.125019999999999
lthumb 0.580485373780107 55.32952044475888
rclavicle -1.3874280459027003e-15 -1.8436986000882848e-15
rhumerus -30.140654216129704 -24.08990629942542 -77.45944705796387
rradius 25.183236513675503
rwrist 1.6773531631134508
rhand -18.130994400146445 23.05583702337587
rfingers 7.125019999999999
rthumb 7.979787044944791 -7.101979955724118
69
root 0.6919470075633324 17.904885738680097 19.1872622277529 -4.572659242746354 -3.0743684961905218 -0.45489523946923693
lfemur -9.469380419310754 -3.451441075917561 -24.20163058733815
ltibia 28.013720015512618
lfoot -14.213767173666778 2.0233532041080684
ltoes -0.7494933793046674
rfemur -20.438499237677803 0.3669621556981557 22.148534881078504
rtibia 76.88702765277463
rfoot -0.7619209042254802 -5.243477026424057
rtoes 11.629387567593396
lowerback 11.14279871519687 1.0806469718195084 0.19168714973346135
upperback 0.5322158378482165 1.4619145784681087 0.6852656232845994
thorax -5.666046571576106 0.7123028400443835 0.4139974098433966
lowerneck -15.735609441085147 -2.74648256738161 -2.2557606384229256
upperneck 21.2871078569794 -3.573564731701856 1.3438306429115254
head 9.384114492259572 -1.6909137040219346 0.35926389110989526
lclavicle -1.3874280457453005e-15 -1.8436985999415373e-15
lhumerus -31.3109211878767 2.4606364200179134 81.48530110143119
lradius 22.330268261854883
lwrist 2.771140791455001
lhand -26.19065459894666 25.5012233418928
lfingers 7.125019999999999
lthumb 0.26255862477831604 55.267007267786035
rclavicle -1.387428045897644e-15 -1.8436986000825005e-15
rhumerus -30.850747928670312 -24.560060724048114 -77.06766335652958
rradius 25.09431011280796
rwrist 1.522897456734344
rhand -18.140022920138176 22.893858496049504
rfingers 7.125019999999999
rthumb 7.92039956396609 -7.317107418751913
70
root 0.682340960601751 17.87983328706934 19.889380781886018 -4.376497402568575 -2.36983046677044 -0.08227906171176347
lfemur -7.118448229949882 -3.683394853598961 -25.032116327888808
ltibia 27.747699131887682
lfoot -16.070089423115196 2.408167642893086
ltoes -0.36677803530370934
rfemur -24.714248836880085 -0.3487774671305557 21.835161804587624
rtibia 74.68678529391367
rfoot -4.1273463990621435 -5.466821397060275
rtoes 9.482274372940214
lowerback 11.359701744408255 0.5852829376686512 -0.44751225043823073
upperback 0.6391561299797376 0.7232938583830228 0.8297032000730514
thorax -5.727232372678435 0.3627546816490024 1.1491196327554944
lowerneck -15.793272793764356 -2.7168551804958363 -2.410910744431229
upperneck 21.180396106964572 -3.4650507333536718 1.3331879166646974
head 9.377527514661699 -1.652150749102879 0.3733077471485357
lclavicle -1.3874280457438165e-15 -1.843698599939265e-15
lhumerus -29.88700749222918 1.401925092662604 81.58419364798127
lradius 23.528415446631573
lwrist 3.217472996742605
lhand -26.20246124550172 25.282294776476046
lfingers 7.125019999999999
lthumb 0.4073292868777638 55.30092607111305
rclavicle -1.3874280458996043e-15 -1.843698600083457e-15
rhumerus -31.438976529407704 -24.60314904608563 -76.93615350489236
rradius 25.05386154912687
rwrist 1.018155867057625
rhand -18.232127673937732 22.558760821436124
rfingers 7.125019999999999
rthumb 7.742173721277405 -7.736033462759262
71
root 0.6887681953323475 17.842531134763373 21.07315217675938 -4.067921513638321 -1.5773987634418092 0.42062629360531734
lfemur -4.778953476972084 -3.980258233490045 -25.901399726812762
ltibia 27.28642862832388
lfoot -17.85467216928625 3.0058236805943217
ltoes 0.08684504047649888
rfemur -27.404893751722632 -0.5970998525289817 21.63447633696606
rtibia 69.44759570166872
rfoot -6.84914541841387 -5.570131382934375
rtoes 6.83442095066586
lowerback 11.402149655167419 0.1701440051089153 -1.0446218681031951
upperback 0.7301414143984329 0.12490829167800727 0.9082610477862448
thorax -5.629874046694015 0.10998848977577547 1.6885790931326445
lowerneck -15.862004915550258 -2.715103380676144 -2.5055125917025576
upperneck 20.946801545531468 -3.4195296163908284 1.340935702657683
head 9.308239522172183 -1.6414729795582106 0.3967296242640505
lclavicle -1.3874280457500136e-15 -1.8436985999440384e-15
lhumerus -28.59688232893223 0.2383536174238352 81.60416046681254
lradius 24.57998262083404
lwrist 4.219836096021087
lhand -26.27892215355029 25.010496177293227
lfingers 7.125019999999999
lthumb 0.3367167232858419 55.024550717967216
rclavicle -1.3874280458963281e-15 -1.843698600079506e-15
rhumerus -32.27720197346745 -24.740798988151326 -76.83362115404795
rradius 25.02690495010771
rwrist 0.13137990977964176
rhand -18.279363342793282 22.458442983311084
rfingers 7.125019999999999
rthumb 7.613808075614247 -7.941418903870394
72
root 0.6753011345202649 17.81113672221065 21.635639614891815 -3.6442389543989733 -1.1147472066573634 0.8504390929861385
lfemur -2.387778352037829 -3.96387769648235 -26.51021637638297
ltibia 26.095170542512207
lfoot -18.867738632921867 3.220628652238415
ltoes 1.3716345727454384
rfemur -28.82783350255358 -0.16680937168719723 21.313025823573042
rtibia 61.131072829309915
rfoot -8.181609849575814 -6.252413993647515
rtoes 4.235927900910038
lowerback 11.335301991989208 -0.13305373591081932 -1.7250316965154657
upperback 0.8034846254733716 -0.36892819414063194 0.9525627143728556
thorax -5.484666937477085 -0.11648041287506078 2.3058109122962676
lowerneck -15.91526225463786 -2.7203806807463025 -2.5687766915013976
upperneck 20.578307450322562 -3.387055449086167 1.3398326300935597
head 9.179791837769512 -1.6336220771749628 0.40387033570856207
lclavicle -1.3874280457511495e-15 -1.8436985999449058e-15
lhumerus -27.09168337316631 -0.8076167803218954 81.59137333398003
lradius 25.74103636466111
lwrist 5.036294975620482
lhand -26.193290862383357 25.833093611030087
lfingers 7.125019999999999
lthumb 0.3067307231638141 55.710584296888065
rclavicle -1.38742804589508e-15 -1.843698600078207e-15
rhumerus -33.162006930752476 -24.95110756824271 -76.6960423391357
rradius 24.93622399632225
rwrist 0.027884514673588434
rhand -18.374628856341488 22.273208067092146
rfingers 7.125019999999999
rthumb 7.476769290288921 -8.159197051329205
